<mxfile host="app.diagrams.net" modified="2024-04-18T21:01:53.096Z" agent="Mozilla/5.0 (X11; Linux x86_64; rv:124.0) Gecko/20100101 Firefox/124.0" version="24.2.5" etag="1syShKTcDDsuexqMsyTp" type="github">
  <diagram name="Page-1" id="jhFHrQlnwvlaUw5vRqK9">
    <mxGraphModel>
      <root>
        <mxCell id="0" />
        <mxCell id="1" parent="0" />
      </root>
    </mxGraphModel>
  </diagram>
</mxfile>
